<svg version="1.1" id="Layer_1" xmlns="http://www.w3.org/2000/svg" xmlns:xlink="http://www.w3.org/1999/xlink" x="0px" y="0px"
	 width="100%" viewBox="0 0 583 615" enable-background="new 0 0 583 615" xml:space="preserve">
<path fill="#000000" opacity="1.000000" stroke="none" 
	d="
M237.000000,616.000000 
	C159.833328,616.000000 82.666664,616.005676 5.500026,615.958313 
	C3.999818,615.957397 2.499996,615.333374 1.463758,614.502869 
	C5.743900,614.005737 9.560281,614.005737 13.480005,614.005737 
	C15.985970,605.177612 18.323790,596.550903 20.960062,588.016296 
	C21.432756,586.485962 23.120703,584.199646 24.276814,584.182007 
	C40.738407,583.931091 57.205040,584.010925 73.714012,584.010925 
	C74.666794,587.486206 75.511932,590.628113 76.391510,593.760376 
	C77.273102,596.899902 78.320305,599.998962 79.066391,603.169495 
	C81.732544,614.499268 82.005043,614.738464 93.657799,613.929138 
	C93.978188,613.906921 94.288017,613.732605 94.820381,613.557678 
	C82.804611,570.118042 70.786896,526.671326 58.771244,483.232117 
	C51.717529,483.232117 45.248207,483.232117 38.493172,483.232117 
	C35.699509,492.736969 32.860649,502.216980 30.130013,511.728027 
	C26.041246,525.969482 22.054607,540.240173 17.976727,554.484741 
	C13.043020,571.718750 8.077711,588.943848 3.036215,606.146423 
	C2.815763,606.898560 1.699164,607.388123 1.000003,608.000000 
	C1.000000,405.666656 1.000000,203.333328 1.000000,1.000000 
	C23.426611,1.000000 45.745449,1.000000 68.885078,1.254734 
	C68.762436,2.059350 67.871452,2.741710 66.867676,3.139219 
	C52.080627,8.995070 41.800129,23.045967 41.858376,39.448208 
	C42.186214,131.771851 41.988739,224.097290 42.008404,316.422119 
	C42.012321,334.829773 58.866215,351.876709 77.329941,351.913666 
	C121.653847,352.002350 165.977982,351.984924 210.302032,351.989960 
	C238.796066,351.993195 267.290894,352.048645 295.782715,351.789062 
	C298.268646,351.766449 301.735687,350.221100 303.022980,348.254517 
	C306.933624,342.280304 302.712891,335.997040 295.243744,335.996582 
	C224.250275,335.992218 153.256790,335.998016 82.263321,335.992371 
	C67.890007,335.991241 58.014465,326.228058 58.012192,311.987976 
	C58.001457,244.827484 58.007370,177.666992 58.007343,110.506493 
	C58.007339,108.749466 58.007336,106.992439 58.007336,105.287056 
	C190.764053,105.287056 322.806946,105.287056 455.076569,105.287056 
	C455.076569,129.724472 455.065247,153.712769 455.099426,177.701019 
	C455.101990,179.496841 455.240143,181.335754 455.640991,183.079773 
	C456.959473,188.816467 460.100555,191.484085 464.547546,190.861603 
	C469.291901,190.197495 471.979004,186.675644 471.979309,181.074509 
	C471.981842,134.245529 471.780212,87.415237 472.087250,40.588276 
	C472.194244,24.268597 461.018433,7.514280 446.286133,2.962013 
	C445.710327,2.784090 445.422180,1.675148 445.000000,1.000006 
	C491.303497,1.000000 537.606995,1.000000 584.000000,1.000000 
	C584.000000,180.021439 584.000000,359.042877 583.726440,538.886108 
	C583.007507,539.238708 582.298096,538.838562 582.155029,538.290466 
	C577.023438,518.643494 563.145813,515.970947 547.127258,518.646301 
	C539.380249,519.940186 531.953735,523.153809 524.220215,525.548401 
	C524.068909,523.631958 523.904602,521.549927 523.736572,519.421753 
	C520.184631,519.421753 516.950500,519.421753 513.472412,519.421753 
	C513.472412,550.982605 513.472412,582.195496 513.472412,613.611572 
	C517.109070,613.611572 520.458801,613.611572 524.019592,613.611572 
	C524.019592,593.248962 524.019043,573.277954 524.019714,553.306946 
	C524.020325,536.328003 523.994934,536.240845 540.340637,531.367676 
	C544.383850,530.162292 548.624939,529.438904 552.828125,528.986877 
	C564.216614,527.761841 571.908142,536.939514 571.962158,547.896912 
	C572.061401,568.044189 571.997864,588.192200 572.002014,608.339905 
	C572.002380,610.111206 572.002014,611.882568 572.002014,614.000000 
	C576.398132,614.000000 580.199097,614.000000 584.000000,614.000000 
	C583.668030,614.666687 583.454956,615.783813 582.980164,615.909058 
	C581.890930,616.196411 580.674011,616.000000 579.508972,616.000000 
	C476.317871,616.000000 373.126801,616.000000 269.210236,615.654724 
	C272.847504,613.676819 277.210236,612.044128 282.330750,610.127930 
	C281.430084,606.746887 280.495453,603.238281 279.553375,599.701843 
	C272.050323,601.388184 265.028748,603.269592 257.894318,604.492798 
	C249.037704,606.011169 240.809235,605.465271 233.673325,598.354919 
	C226.245529,590.953796 224.769592,581.807312 223.169937,571.862671 
	C243.882965,571.862671 264.152588,571.862671 284.730713,571.862671 
	C285.119476,560.438293 285.570312,549.505005 281.063385,538.975342 
	C276.770325,528.945435 270.678955,521.032227 259.238495,519.052856 
	C255.217194,518.357178 251.082138,518.313782 246.997742,517.988831 
	C232.744064,516.854797 219.460709,527.045715 214.977768,540.790100 
	C210.906906,553.270996 210.291672,565.886292 211.922958,578.825867 
	C213.862640,594.211365 219.777344,606.719727 234.796814,613.377197 
	C235.734512,613.792786 236.274811,615.104919 237.000000,616.000000 
M381.794067,401.880463 
	C384.534698,402.746948 387.275330,403.613434 389.989655,404.471588 
	C389.989655,409.742920 389.952148,414.570923 390.000824,419.398071 
	C390.044037,423.683350 393.083618,426.891174 397.232391,426.905701 
	C410.729553,426.953064 424.227173,426.969879 437.724152,426.904541 
	C442.996735,426.879028 445.920380,423.869080 445.991760,418.598022 
	C446.054779,413.945190 446.004974,409.290833 446.004974,404.755371 
	C450.150696,403.100983 454.394135,402.104431 457.858429,399.889313 
	C466.846527,394.142120 474.051025,395.203491 479.871948,404.290680 
	C480.046356,404.562927 480.330627,404.773529 480.588409,404.982361 
	C484.264313,407.960052 488.668671,407.747192 492.048401,404.376953 
	C500.896423,395.553741 509.727692,386.713715 518.561951,377.876740 
	C523.453064,372.984161 523.446655,367.984222 518.414246,362.943237 
	C515.595642,360.119873 512.615662,357.457733 509.991547,354.989288 
	C513.468445,346.597748 516.688721,338.825653 519.957642,330.936066 
	C524.085815,330.936066 528.248047,330.988586 532.408508,330.924255 
	C539.382446,330.816467 541.985535,328.226440 541.998230,321.400635 
	C542.021484,308.903168 542.015869,296.405609 542.005371,283.908112 
	C541.999512,276.856415 540.296082,275.189545 533.268188,275.094299 
	C528.949402,275.035797 523.612915,276.351685 520.610046,274.301575 
	C517.782471,272.371185 517.415894,266.836304 515.965759,262.887421 
	C515.908997,262.732880 515.878174,262.552826 515.777893,262.432526 
	C508.532898,253.742935 510.840302,247.055603 519.468933,240.723007 
	C523.721924,237.601746 523.061096,231.578918 519.216797,227.726486 
	C510.625488,219.117020 502.030182,210.511398 493.403870,201.937088 
	C487.950684,196.516739 483.690399,196.266434 478.685730,201.981491 
	C473.535461,207.862793 468.651642,212.530685 460.901550,206.048874 
	C460.692383,205.873932 460.224640,206.048828 459.925049,205.935150 
	C455.646790,204.311432 449.786652,203.814682 447.543335,200.709106 
	C445.210205,197.479202 446.369598,191.723984 446.012207,187.072220 
	C445.961243,186.408966 446.104767,185.702301 445.927124,185.081894 
	C444.816956,181.203888 442.971222,178.066040 438.290253,178.064514 
	C424.793701,178.060074 411.296234,177.976776 397.801056,178.112976 
	C393.021179,178.161209 390.181976,181.193069 390.027710,185.946869 
	C389.898102,189.941986 390.226685,193.965546 389.865753,197.932251 
	C389.738678,199.328827 388.454987,201.234818 387.201508,201.795853 
	C383.811829,203.313034 379.622986,203.478043 376.705322,205.533722 
	C368.527344,211.295639 362.882355,209.013428 357.012665,201.820908 
	C352.615326,196.432495 347.253540,196.566742 342.312744,201.289490 
	C333.523254,209.691086 324.924683,218.301041 316.464905,227.035599 
	C311.835693,231.815186 312.121033,236.602692 316.889191,241.263931 
	C319.958618,244.264481 323.230286,247.058167 325.987976,249.560455 
	C323.668121,254.814087 320.824860,258.847382 320.167084,263.210175 
	C318.446869,274.620300 311.469635,276.276306 301.747375,275.235077 
	C295.738342,274.591492 293.111725,277.683563 293.089355,283.846588 
	C293.044617,296.177307 293.054077,308.508331 293.077606,320.839172 
	C293.089722,327.182983 296.293915,330.574829 302.710236,330.891113 
	C306.201355,331.063202 309.736755,330.675568 313.192108,331.068573 
	C314.579895,331.226440 316.455841,332.520477 316.998535,333.777161 
	C319.971863,340.662415 322.600189,347.696655 325.623108,355.381561 
	C323.260468,357.596008 320.595093,360.364868 317.652222,362.798096 
	C310.827972,368.440552 312.964905,374.554077 317.712952,379.210938 
	C325.444550,386.794128 333.378906,394.211792 340.594879,402.266266 
	C346.239471,408.566833 353.156097,408.128571 358.322601,402.307678 
	C365.442322,394.286194 365.773773,394.591614 375.265961,398.971985 
	C377.188263,399.859100 379.149841,400.660980 381.794067,401.880463 
M83.417870,183.105453 
	C79.872185,188.707657 80.068642,192.777481 84.849991,197.202805 
	C100.235779,211.442963 115.790611,225.500290 131.237228,239.675003 
	C135.548645,243.631348 139.993423,243.980499 143.949570,240.434952 
	C147.001495,237.699753 146.941681,231.454575 143.324402,227.931351 
	C138.373428,223.109116 133.003250,218.720612 127.907295,214.043198 
	C119.207756,206.058243 110.581703,197.993225 101.167641,189.259415 
	C102.744469,188.080154 104.174583,187.188904 105.395790,186.069733 
	C117.791924,174.709106 130.210983,163.372345 142.495987,151.892273 
	C147.064575,147.623016 147.410324,142.965607 143.909439,139.465271 
	C140.176941,135.733353 134.655502,136.065903 130.341125,140.123840 
	C120.594513,149.291077 110.837112,158.447968 100.989883,167.506638 
	C95.410622,172.639114 89.645042,177.569077 83.417870,183.105453 
M262.003052,193.571960 
	C261.174194,194.391891 260.371735,195.240707 259.512451,196.027390 
	C247.699799,206.842026 235.821304,217.585739 224.094269,228.492355 
	C220.342804,231.981384 221.273483,239.511185 225.553726,241.681473 
	C229.717346,243.792618 233.517258,242.685638 236.787796,239.649200 
	C246.836090,230.320129 256.787994,220.886795 266.875977,211.601135 
	C272.085236,206.806198 277.434326,202.156326 282.847198,197.591492 
	C287.888855,193.339706 288.300629,187.787018 283.480011,183.074921 
	C278.977203,178.673477 274.272858,174.478668 269.674561,170.174347 
	C259.141541,160.314713 248.669693,150.388657 238.041595,140.632706 
	C236.308563,139.041885 233.967545,138.049454 231.795807,137.014999 
	C228.256104,135.328934 224.770737,137.121628 223.517441,139.708542 
	C222.212585,142.401886 221.653931,147.472153 223.256683,149.213806 
	C230.638992,157.235825 238.841003,164.511108 246.844788,171.951172 
	C253.168991,177.829926 259.632416,183.558899 266.215546,189.518692 
	C264.662109,190.998688 263.578461,192.031128 262.003052,193.571960 
M176.017715,558.602173 
	C180.001160,545.577148 183.984604,532.552124 188.103912,519.082886 
	C184.904587,519.082886 182.395874,519.283203 179.932297,519.035156 
	C176.385056,518.678040 174.615875,519.878662 173.684723,523.529114 
	C171.755356,531.092896 169.247131,538.507568 167.045197,546.003601 
	C161.661224,564.332275 156.347595,582.681641 150.880096,600.985229 
	C150.538406,602.129150 149.113937,602.949646 148.193222,603.920593 
	C147.480453,602.911499 146.448303,602.000977 146.101944,600.878784 
	C138.788177,577.183167 131.612854,553.444824 124.273300,529.757263 
	C120.802986,518.557190 120.673485,518.594482 109.102356,519.180603 
	C108.832169,519.194275 108.575111,519.467102 108.329559,519.608887 
	C116.935982,547.188049 125.455017,574.772034 134.173859,602.292786 
	C137.904892,614.069641 138.093979,614.009766 150.500656,614.016724 
	C151.500519,614.017273 152.525345,613.873230 153.495972,614.041748 
	C157.986969,614.821594 159.760468,612.684143 160.983948,608.493896 
	C165.777756,592.075562 170.961807,575.771240 176.017715,558.602173 
M327.565247,492.004700 
	C332.656830,492.004700 337.748413,492.004700 342.795044,492.004700 
	C342.795044,529.685059 342.795044,566.606750 342.795044,604.093445 
	C334.803162,604.093445 327.073853,604.093445 319.472290,604.093445 
	C319.472290,607.719727 319.472290,610.768433 319.472290,613.651001 
	C339.464844,613.651001 359.045441,613.651001 378.676971,613.651001 
	C378.676971,610.353699 378.676971,607.424377 378.676971,603.913696 
	C370.716034,603.913696 362.989532,603.913696 354.681824,603.913696 
	C354.681824,562.958557 354.681824,522.588928 354.681824,482.419739 
	C342.496674,482.419739 330.921234,482.419739 319.387329,482.419739 
	C319.387329,485.751007 319.387329,488.672485 319.387329,492.004089 
	C321.992340,492.004089 324.292542,492.004089 327.565247,492.004700 
M468.496643,603.989136 
	C464.737885,603.989136 460.979095,603.989136 456.703217,603.989136 
	C456.703217,575.355103 456.703217,547.438660 456.703217,519.363892 
	C444.923035,519.363892 433.678009,519.363892 422.335327,519.363892 
	C422.335327,522.560547 422.335327,525.454956 422.335327,529.026550 
	C430.050690,529.026550 437.441956,529.026550 444.787476,529.026550 
	C444.787476,554.313599 444.787476,578.913208 444.787476,604.111694 
	C436.798279,604.111694 429.071381,604.111694 421.326111,604.111694 
	C421.326111,607.645081 421.326111,610.573914 421.326111,613.626953 
	C440.962524,613.626953 460.336456,613.626953 479.651733,613.626953 
	C479.651733,610.304443 479.651733,607.374023 479.651733,603.989258 
	C476.073151,603.989258 472.776276,603.989258 468.496643,603.989136 
M165.762360,239.957291 
	C174.178650,242.328018 176.730576,241.162567 179.401230,232.971069 
	C183.035431,221.824097 186.468018,210.609482 189.849319,199.382401 
	C194.829498,182.846603 199.723160,166.284470 204.577972,149.711380 
	C206.097061,144.525604 203.869537,139.719742 199.530106,138.282837 
	C194.923798,136.757568 190.426300,139.296326 188.674789,144.881485 
	C184.047073,159.638153 179.571671,174.443008 175.102219,189.248779 
	C171.477875,201.254929 167.943802,213.288391 164.382645,225.313568 
	C162.956863,230.128067 161.789078,234.942307 165.762360,239.957291 
M449.637634,500.018890 
	C455.855591,499.980499 458.764252,497.253387 458.934357,491.302429 
	C459.075439,486.366333 455.634399,482.485443 450.713684,482.031036 
	C446.358063,481.628815 441.557709,485.210846 441.219788,489.597443 
	C440.723175,496.043274 443.269592,499.834412 449.637634,500.018890 
z"/>
<path fill="#E90965" opacity="1.000000" stroke="none" 
	d="
M444.531311,1.000006 
	C445.422180,1.675148 445.710327,2.784090 446.286133,2.962013 
	C461.018433,7.514280 472.194244,24.268597 472.087250,40.588276 
	C471.780212,87.415237 471.981842,134.245529 471.979309,181.074509 
	C471.979004,186.675644 469.291901,190.197495 464.547546,190.861603 
	C460.100555,191.484085 456.959473,188.816467 455.640991,183.079773 
	C455.240143,181.335754 455.101990,179.496841 455.099426,177.701019 
	C455.065247,153.712769 455.076569,129.724472 455.076569,105.287056 
	C322.806946,105.287056 190.764053,105.287056 58.007336,105.287056 
	C58.007336,106.992439 58.007339,108.749466 58.007343,110.506493 
	C58.007370,177.666992 58.001457,244.827484 58.012192,311.987976 
	C58.014465,326.228058 67.890007,335.991241 82.263321,335.992371 
	C153.256790,335.998016 224.250275,335.992218 295.243744,335.996582 
	C302.712891,335.997040 306.933624,342.280304 303.022980,348.254517 
	C301.735687,350.221100 298.268646,351.766449 295.782715,351.789062 
	C267.290894,352.048645 238.796066,351.993195 210.302032,351.989960 
	C165.977982,351.984924 121.653847,352.002350 77.329941,351.913666 
	C58.866215,351.876709 42.012321,334.829773 42.008404,316.422119 
	C41.988739,224.097290 42.186214,131.771851 41.858376,39.448208 
	C41.800129,23.045967 52.080627,8.995070 66.867676,3.139219 
	C67.871452,2.741710 68.762436,2.059350 69.352936,1.254734 
	C194.020889,1.000000 319.041779,1.000000 444.531311,1.000006 
M372.499481,16.791071 
	C278.872406,16.790270 185.245285,16.770411 91.618248,16.840660 
	C86.529381,16.844479 81.407722,17.361053 76.359825,18.060884 
	C67.377403,19.306189 60.908073,25.510937 58.983143,34.471558 
	C58.437313,37.012424 58.064049,39.643993 58.049240,42.236465 
	C57.962971,57.344711 58.006981,72.453705 58.006981,87.711319 
	C190.561508,87.711319 322.585144,87.711319 455.073212,87.711319 
	C455.073212,70.967918 455.109131,54.510883 455.056976,38.054131 
	C455.033447,30.629530 451.295044,24.742056 445.255005,21.350262 
	C440.607483,18.740450 434.810211,17.134287 429.471802,16.987484 
	C410.826691,16.474756 392.158844,16.789099 372.499481,16.791071 
z"/>
<path fill="#E80A65" opacity="1.000000" stroke="none" 
	d="
M1.000003,608.428467 
	C1.699164,607.388123 2.815763,606.898560 3.036215,606.146423 
	C8.077711,588.943848 13.043020,571.718750 17.976727,554.484741 
	C22.054607,540.240173 26.041246,525.969482 30.130013,511.728027 
	C32.860649,502.216980 35.699509,492.736969 38.493172,483.232117 
	C45.248207,483.232117 51.717529,483.232117 58.771244,483.232117 
	C70.786896,526.671326 82.804611,570.118042 94.820381,613.557678 
	C94.288017,613.732605 93.978188,613.906921 93.657799,613.929138 
	C82.005043,614.738464 81.732544,614.499268 79.066391,603.169495 
	C78.320305,599.998962 77.273102,596.899902 76.391510,593.760376 
	C75.511932,590.628113 74.666794,587.486206 73.714012,584.010925 
	C57.205040,584.010925 40.738407,583.931091 24.276814,584.182007 
	C23.120703,584.199646 21.432756,586.485962 20.960062,588.016296 
	C18.323790,596.550903 15.985970,605.177612 13.480005,614.005737 
	C9.560281,614.005737 5.743900,614.005737 1.463760,614.002869 
	C1.000000,612.285645 1.000000,610.571289 1.000003,608.428467 
M46.403809,496.012268 
	C46.217831,497.146088 46.141609,498.311157 45.829441,499.409088 
	C41.015808,516.339905 36.144913,533.254456 31.346233,550.189453 
	C29.147480,557.949158 27.076744,565.745117 24.877569,573.781860 
	C40.523041,573.781860 55.636215,573.781860 70.770096,573.781860 
	C70.849007,573.082214 71.057152,572.549561 70.937904,572.104736 
	C66.340660,554.956055 61.729485,537.810974 57.083466,520.675415 
	C54.784977,512.198120 52.448441,503.730652 50.026169,495.288239 
	C49.781319,494.434875 48.823849,493.785950 48.197079,493.042175 
	C47.738926,493.795166 47.280773,494.548157 46.403809,496.012268 
z"/>
<path fill="#E90965" opacity="1.000000" stroke="none" 
	d="
M237.468658,616.000000 
	C236.274811,615.104919 235.734512,613.792786 234.796814,613.377197 
	C219.777344,606.719727 213.862640,594.211365 211.922958,578.825867 
	C210.291672,565.886292 210.906906,553.270996 214.977768,540.790100 
	C219.460709,527.045715 232.744064,516.854797 246.997742,517.988831 
	C251.082138,518.313782 255.217194,518.357178 259.238495,519.052856 
	C270.678955,521.032227 276.770325,528.945435 281.063385,538.975342 
	C285.570312,549.505005 285.119476,560.438293 284.730713,571.862671 
	C264.152588,571.862671 243.882965,571.862671 223.169937,571.862671 
	C224.769592,581.807312 226.245529,590.953796 233.673325,598.354919 
	C240.809235,605.465271 249.037704,606.011169 257.894318,604.492798 
	C265.028748,603.269592 272.050323,601.388184 279.553375,599.701843 
	C280.495453,603.238281 281.430084,606.746887 282.330750,610.127930 
	C277.210236,612.044128 272.847504,613.676819 268.742371,615.654724 
	C258.645782,616.000000 248.291550,616.000000 237.468658,616.000000 
M242.500809,562.022034 
	C252.586502,562.022034 262.672211,562.022034 273.252991,562.022034 
	C272.441711,556.236694 272.239990,550.951782 270.883148,545.982178 
	C268.581329,537.551453 263.907776,530.421570 254.554626,529.152039 
	C244.578918,527.798035 234.575745,529.077515 229.455460,539.262695 
	C226.034241,546.068176 224.432571,553.788391 221.710526,562.025574 
	C229.287506,562.025574 235.394302,562.025574 242.500809,562.022034 
z"/>
<path fill="#E70963" opacity="1.000000" stroke="none" 
	d="
M584.000000,613.531372 
	C580.199097,614.000000 576.398132,614.000000 572.002014,614.000000 
	C572.002014,611.882568 572.002380,610.111206 572.002014,608.339905 
	C571.997864,588.192200 572.061401,568.044189 571.962158,547.896912 
	C571.908142,536.939514 564.216614,527.761841 552.828125,528.986877 
	C548.624939,529.438904 544.383850,530.162292 540.340637,531.367676 
	C523.994934,536.240845 524.020325,536.328003 524.019714,553.306946 
	C524.019043,573.277954 524.019592,593.248962 524.019592,613.611572 
	C520.458801,613.611572 517.109070,613.611572 513.472412,613.611572 
	C513.472412,582.195496 513.472412,550.982605 513.472412,519.421753 
	C516.950500,519.421753 520.184631,519.421753 523.736572,519.421753 
	C523.904602,521.549927 524.068909,523.631958 524.220215,525.548401 
	C531.953735,523.153809 539.380249,519.940186 547.127258,518.646301 
	C563.145813,515.970947 577.023438,518.643494 582.155029,538.290466 
	C582.298096,538.838562 583.007507,539.238708 583.726440,539.353943 
	C584.000000,563.687561 584.000000,588.375122 584.000000,613.531372 
z"/>
<path fill="#E90A65" opacity="1.000000" stroke="none" 
	d="
M381.443695,401.691315 
	C379.149841,400.660980 377.188263,399.859100 375.265961,398.971985 
	C365.773773,394.591614 365.442322,394.286194 358.322601,402.307678 
	C353.156097,408.128571 346.239471,408.566833 340.594879,402.266266 
	C333.378906,394.211792 325.444550,386.794128 317.712952,379.210938 
	C312.964905,374.554077 310.827972,368.440552 317.652222,362.798096 
	C320.595093,360.364868 323.260468,357.596008 325.623108,355.381561 
	C322.600189,347.696655 319.971863,340.662415 316.998535,333.777161 
	C316.455841,332.520477 314.579895,331.226440 313.192108,331.068573 
	C309.736755,330.675568 306.201355,331.063202 302.710236,330.891113 
	C296.293915,330.574829 293.089722,327.182983 293.077606,320.839172 
	C293.054077,308.508331 293.044617,296.177307 293.089355,283.846588 
	C293.111725,277.683563 295.738342,274.591492 301.747375,275.235077 
	C311.469635,276.276306 318.446869,274.620300 320.167084,263.210175 
	C320.824860,258.847382 323.668121,254.814087 325.987976,249.560455 
	C323.230286,247.058167 319.958618,244.264481 316.889191,241.263931 
	C312.121033,236.602692 311.835693,231.815186 316.464905,227.035599 
	C324.924683,218.301041 333.523254,209.691086 342.312744,201.289490 
	C347.253540,196.566742 352.615326,196.432495 357.012665,201.820908 
	C362.882355,209.013428 368.527344,211.295639 376.705322,205.533722 
	C379.622986,203.478043 383.811829,203.313034 387.201508,201.795853 
	C388.454987,201.234818 389.738678,199.328827 389.865753,197.932251 
	C390.226685,193.965546 389.898102,189.941986 390.027710,185.946869 
	C390.181976,181.193069 393.021179,178.161209 397.801056,178.112976 
	C411.296234,177.976776 424.793701,178.060074 438.290253,178.064514 
	C442.971222,178.066040 444.816956,181.203888 445.927124,185.081894 
	C446.104767,185.702301 445.961243,186.408966 446.012207,187.072220 
	C446.369598,191.723984 445.210205,197.479202 447.543335,200.709106 
	C449.786652,203.814682 455.646790,204.311432 459.925049,205.935150 
	C460.224640,206.048828 460.692383,205.873932 460.901550,206.048874 
	C468.651642,212.530685 473.535461,207.862793 478.685730,201.981491 
	C483.690399,196.266434 487.950684,196.516739 493.403870,201.937088 
	C502.030182,210.511398 510.625488,219.117020 519.216797,227.726486 
	C523.061096,231.578918 523.721924,237.601746 519.468933,240.723007 
	C510.840302,247.055603 508.532898,253.742935 515.777893,262.432526 
	C515.878174,262.552826 515.908997,262.732880 515.965759,262.887421 
	C517.415894,266.836304 517.782471,272.371185 520.610046,274.301575 
	C523.612915,276.351685 528.949402,275.035797 533.268188,275.094299 
	C540.296082,275.189545 541.999512,276.856415 542.005371,283.908112 
	C542.015869,296.405609 542.021484,308.903168 541.998230,321.400635 
	C541.985535,328.226440 539.382446,330.816467 532.408508,330.924255 
	C528.248047,330.988586 524.085815,330.936066 519.957642,330.936066 
	C516.688721,338.825653 513.468445,346.597748 509.991547,354.989288 
	C512.615662,357.457733 515.595642,360.119873 518.414246,362.943237 
	C523.446655,367.984222 523.453064,372.984161 518.561951,377.876740 
	C509.727692,386.713715 500.896423,395.553741 492.048401,404.376953 
	C488.668671,407.747192 484.264313,407.960052 480.588409,404.982361 
	C480.330627,404.773529 480.046356,404.562927 479.871948,404.290680 
	C474.051025,395.203491 466.846527,394.142120 457.858429,399.889313 
	C454.394135,402.104431 450.150696,403.100983 446.004974,404.755371 
	C446.004974,409.290833 446.054779,413.945190 445.991760,418.598022 
	C445.920380,423.869080 442.996735,426.879028 437.724152,426.904541 
	C424.227173,426.969879 410.729553,426.953064 397.232391,426.905701 
	C393.083618,426.891174 390.044037,423.683350 390.000824,419.398071 
	C389.952148,414.570923 389.989655,409.742920 389.989655,404.471588 
	C387.275330,403.613434 384.534698,402.746948 381.443695,401.691315 
M334.103485,233.645691 
	C336.479279,236.345062 338.759796,239.136246 341.252380,241.723038 
	C345.353912,245.979645 346.098663,249.959366 342.900665,254.981628 
	C337.114655,264.068207 333.117493,273.823151 330.912964,284.355591 
	C329.970612,288.857758 327.114166,291.053680 322.436798,290.941864 
	C318.358551,290.844391 314.276184,290.921539 310.273193,290.921539 
	C310.273193,299.030396 310.273193,306.298370 310.273193,313.993469 
	C314.662628,313.993469 318.791565,314.036865 322.919159,313.981140 
	C326.962891,313.926514 329.889771,316.046875 330.640167,319.653046 
	C333.010895,331.045380 337.585114,341.422363 343.567322,351.316498 
	C345.978058,355.303680 345.354584,359.201050 341.884613,362.566528 
	C339.072357,365.294098 336.403168,368.169128 334.071106,370.566864 
	C339.518127,376.268646 344.537964,381.523254 349.769653,386.999603 
	C352.535095,384.138458 355.169891,381.358002 357.865387,378.637665 
	C361.076294,375.397186 365.818329,374.919128 369.885712,377.402252 
	C378.875153,382.890228 388.257416,387.332184 398.770386,389.144958 
	C403.976135,390.042603 405.970856,392.789886 406.002716,398.109100 
	C406.028198,402.359680 406.007874,406.610535 406.007874,410.792786 
	C414.071472,410.792786 421.341980,410.792786 429.073608,410.792786 
	C429.073608,406.904144 429.031067,403.276489 429.082977,399.650208 
	C429.174896,393.232635 431.612793,391.089569 437.673096,388.944214 
	C446.865295,385.690186 455.892212,381.865631 464.705994,377.685883 
	C469.860718,375.241364 474.527466,375.167480 478.691467,379.266357 
	C481.036133,381.574310 483.170105,384.096344 485.299194,386.413330 
	C491.098785,380.522858 496.265961,375.274689 501.640106,369.816345 
	C499.061005,367.320160 496.279724,364.686310 493.565277,361.985260 
	C490.658905,359.093262 489.719818,355.205200 491.803345,352.033356 
	C498.015320,342.576569 501.996063,332.247498 504.824890,321.449646 
	C506.244263,316.031769 509.220917,313.694885 514.712402,313.992554 
	C518.319641,314.188019 521.946045,314.029480 525.675354,314.029480 
	C525.675354,306.075226 525.675354,298.686371 525.675354,290.920990 
	C521.223267,290.920990 517.078857,291.042053 512.944702,290.887177 
	C508.753937,290.730103 506.139465,288.882874 504.948303,284.398743 
	C502.188477,274.009583 499.062836,263.727936 492.510529,254.852997 
	C489.772614,251.144547 490.536194,246.057770 493.924561,242.652252 
	C496.596649,239.966705 499.517090,237.528229 501.364288,235.853180 
	C495.598724,230.002609 490.399902,224.727097 484.849518,219.094879 
	C483.413422,220.673111 481.577393,222.605896 479.835968,224.620453 
	C474.441589,230.860931 470.963135,230.516937 463.758698,226.592209 
	C455.768005,222.239136 447.087921,218.909683 438.376526,216.200195 
	C431.761963,214.142868 429.141235,212.135162 429.065369,205.164703 
	C429.029694,201.885529 429.059265,198.605652 429.059265,195.282867 
	C421.077515,195.282867 413.691040,195.282867 406.007355,195.282867 
	C406.007355,199.460114 405.899384,203.274475 406.034912,207.080154 
	C406.200775,211.737305 404.128784,214.815704 399.626587,215.664047 
	C388.818817,217.700516 379.219788,222.500488 369.819519,227.920471 
	C364.634125,230.910233 361.917908,230.422882 357.684326,226.065857 
	C355.040710,223.345154 352.582794,220.444016 349.929504,217.499573 
	C344.344635,223.119339 339.413391,228.081345 334.103485,233.645691 
z"/>
<path fill="#E90A64" opacity="1.000000" stroke="none" 
	d="
M83.690628,182.847839 
	C89.645042,177.569077 95.410622,172.639114 100.989883,167.506638 
	C110.837112,158.447968 120.594513,149.291077 130.341125,140.123840 
	C134.655502,136.065903 140.176941,135.733353 143.909439,139.465271 
	C147.410324,142.965607 147.064575,147.623016 142.495987,151.892273 
	C130.210983,163.372345 117.791924,174.709106 105.395790,186.069733 
	C104.174583,187.188904 102.744469,188.080154 101.167641,189.259415 
	C110.581703,197.993225 119.207756,206.058243 127.907295,214.043198 
	C133.003250,218.720612 138.373428,223.109116 143.324402,227.931351 
	C146.941681,231.454575 147.001495,237.699753 143.949570,240.434952 
	C139.993423,243.980499 135.548645,243.631348 131.237228,239.675003 
	C115.790611,225.500290 100.235779,211.442963 84.849991,197.202805 
	C80.068642,192.777481 79.872185,188.707657 83.690628,182.847839 
z"/>
<path fill="#EA0A64" opacity="1.000000" stroke="none" 
	d="
M262.248932,193.317764 
	C263.578461,192.031128 264.662109,190.998688 266.215546,189.518692 
	C259.632416,183.558899 253.168991,177.829926 246.844788,171.951172 
	C238.841003,164.511108 230.638992,157.235825 223.256683,149.213806 
	C221.653931,147.472153 222.212585,142.401886 223.517441,139.708542 
	C224.770737,137.121628 228.256104,135.328934 231.795807,137.014999 
	C233.967545,138.049454 236.308563,139.041885 238.041595,140.632706 
	C248.669693,150.388657 259.141541,160.314713 269.674561,170.174347 
	C274.272858,174.478668 278.977203,178.673477 283.480011,183.074921 
	C288.300629,187.787018 287.888855,193.339706 282.847198,197.591492 
	C277.434326,202.156326 272.085236,206.806198 266.875977,211.601135 
	C256.787994,220.886795 246.836090,230.320129 236.787796,239.649200 
	C233.517258,242.685638 229.717346,243.792618 225.553726,241.681473 
	C221.273483,239.511185 220.342804,231.981384 224.094269,228.492355 
	C235.821304,217.585739 247.699799,206.842026 259.512451,196.027390 
	C260.371735,195.240707 261.174194,194.391891 262.248932,193.317764 
z"/>
<path fill="#E80A65" opacity="1.000000" stroke="none" 
	d="
M176.009293,559.013367 
	C170.961807,575.771240 165.777756,592.075562 160.983948,608.493896 
	C159.760468,612.684143 157.986969,614.821594 153.495972,614.041748 
	C152.525345,613.873230 151.500519,614.017273 150.500656,614.016724 
	C138.093979,614.009766 137.904892,614.069641 134.173859,602.292786 
	C125.455017,574.772034 116.935982,547.188049 108.329559,519.608887 
	C108.575111,519.467102 108.832169,519.194275 109.102356,519.180603 
	C120.673485,518.594482 120.802986,518.557190 124.273300,529.757263 
	C131.612854,553.444824 138.788177,577.183167 146.101944,600.878784 
	C146.448303,602.000977 147.480453,602.911499 148.193222,603.920593 
	C149.113937,602.949646 150.538406,602.129150 150.880096,600.985229 
	C156.347595,582.681641 161.661224,564.332275 167.045197,546.003601 
	C169.247131,538.507568 171.755356,531.092896 173.684723,523.529114 
	C174.615875,519.878662 176.385056,518.678040 179.932297,519.035156 
	C182.395874,519.283203 184.904587,519.082886 188.103912,519.082886 
	C183.984604,532.552124 180.001160,545.577148 176.009293,559.013367 
z"/>
<path fill="#E80B65" opacity="1.000000" stroke="none" 
	d="
M327.078979,492.004395 
	C324.292542,492.004089 321.992340,492.004089 319.387329,492.004089 
	C319.387329,488.672485 319.387329,485.751007 319.387329,482.419739 
	C330.921234,482.419739 342.496674,482.419739 354.681824,482.419739 
	C354.681824,522.588928 354.681824,562.958557 354.681824,603.913696 
	C362.989532,603.913696 370.716034,603.913696 378.676971,603.913696 
	C378.676971,607.424377 378.676971,610.353699 378.676971,613.651001 
	C359.045441,613.651001 339.464844,613.651001 319.472290,613.651001 
	C319.472290,610.768433 319.472290,607.719727 319.472290,604.093445 
	C327.073853,604.093445 334.803162,604.093445 342.795044,604.093445 
	C342.795044,566.606750 342.795044,529.685059 342.795044,492.004700 
	C337.748413,492.004700 332.656830,492.004700 327.078979,492.004395 
z"/>
<path fill="#E70A63" opacity="1.000000" stroke="none" 
	d="
M468.988007,603.989197 
	C472.776276,603.989258 476.073151,603.989258 479.651733,603.989258 
	C479.651733,607.374023 479.651733,610.304443 479.651733,613.626953 
	C460.336456,613.626953 440.962524,613.626953 421.326111,613.626953 
	C421.326111,610.573914 421.326111,607.645081 421.326111,604.111694 
	C429.071381,604.111694 436.798279,604.111694 444.787476,604.111694 
	C444.787476,578.913208 444.787476,554.313599 444.787476,529.026550 
	C437.441956,529.026550 430.050690,529.026550 422.335327,529.026550 
	C422.335327,525.454956 422.335327,522.560547 422.335327,519.363892 
	C433.678009,519.363892 444.923035,519.363892 456.703217,519.363892 
	C456.703217,547.438660 456.703217,575.355103 456.703217,603.989136 
	C460.979095,603.989136 464.737885,603.989136 468.988007,603.989197 
z"/>
<path fill="#E90A65" opacity="1.000000" stroke="none" 
	d="
M165.405701,239.750061 
	C161.789078,234.942307 162.956863,230.128067 164.382645,225.313568 
	C167.943802,213.288391 171.477875,201.254929 175.102219,189.248779 
	C179.571671,174.443008 184.047073,159.638153 188.674789,144.881485 
	C190.426300,139.296326 194.923798,136.757568 199.530106,138.282837 
	C203.869537,139.719742 206.097061,144.525604 204.577972,149.711380 
	C199.723160,166.284470 194.829498,182.846603 189.849319,199.382401 
	C186.468018,210.609482 183.035431,221.824097 179.401230,232.971069 
	C176.730576,241.162567 174.178650,242.328018 165.405701,239.750061 
z"/>
<path fill="#E60A62" opacity="1.000000" stroke="none" 
	d="
M449.215607,500.018860 
	C443.269592,499.834412 440.723175,496.043274 441.219788,489.597443 
	C441.557709,485.210846 446.358063,481.628815 450.713684,482.031036 
	C455.634399,482.485443 459.075439,486.366333 458.934357,491.302429 
	C458.764252,497.253387 455.855591,499.980499 449.215607,500.018860 
z"/>
<path fill="#000000" opacity="1.000000" stroke="none" 
	d="
M372.999573,16.790123 
	C392.158844,16.789099 410.826691,16.474756 429.471802,16.987484 
	C434.810211,17.134287 440.607483,18.740450 445.255005,21.350262 
	C451.295044,24.742056 455.033447,30.629530 455.056976,38.054131 
	C455.109131,54.510883 455.073212,70.967918 455.073212,87.711319 
	C322.585144,87.711319 190.561508,87.711319 58.006981,87.711319 
	C58.006981,72.453705 57.962971,57.344711 58.049240,42.236465 
	C58.064049,39.643993 58.437313,37.012424 58.983143,34.471558 
	C60.908073,25.510937 67.377403,19.306189 76.359825,18.060884 
	C81.407722,17.361053 86.529381,16.844479 91.618248,16.840660 
	C185.245285,16.770411 278.872406,16.790270 372.999573,16.790123 
M168.425323,61.912827 
	C169.137466,62.610584 169.782715,63.397469 170.573273,63.990730 
	C174.065201,66.611176 177.878860,66.806122 181.720276,64.999962 
	C185.552002,63.198368 186.984085,60.033329 187.020309,55.775585 
	C187.058121,51.329678 185.565369,48.232597 181.551895,46.172997 
	C177.060440,43.868099 173.165451,45.174282 169.695267,48.020329 
	C165.956284,51.086845 165.543503,55.496891 168.425323,61.912827 
M129.213287,57.117695 
	C130.373947,61.363369 131.828735,65.442116 137.066498,65.957787 
	C141.322083,66.376762 145.353012,65.665314 147.952560,61.795776 
	C150.525497,57.965870 151.281754,53.786240 148.256271,49.922260 
	C145.258987,46.094276 141.555237,43.919498 136.259216,45.848606 
	C131.175079,47.700539 129.018814,51.114010 129.213287,57.117695 
M93.380203,61.759567 
	C94.218849,62.563332 94.990143,63.455273 95.907471,64.156044 
	C100.625122,67.760002 107.560349,66.485085 111.004326,61.261936 
	C114.306038,56.254547 111.698563,48.468700 107.096924,46.514126 
	C102.246788,44.454002 98.014328,44.419331 94.428703,48.168056 
	C90.830704,51.929703 91.321800,56.498768 93.380203,61.759567 
z"/>
<path fill="#000000" opacity="1.000000" stroke="none" 
	d="
M46.613216,495.656708 
	C47.280773,494.548157 47.738926,493.795166 48.197083,493.042175 
	C48.823849,493.785950 49.781319,494.434875 50.026169,495.288239 
	C52.448441,503.730652 54.784977,512.198120 57.083466,520.675415 
	C61.729485,537.810974 66.340660,554.956055 70.937904,572.104736 
	C71.057152,572.549561 70.849007,573.082214 70.770096,573.781860 
	C55.636215,573.781860 40.523041,573.781860 24.877569,573.781860 
	C27.076744,565.745117 29.147480,557.949158 31.346233,550.189453 
	C36.144913,533.254456 41.015808,516.339905 45.829441,499.409088 
	C46.141609,498.311157 46.217831,497.146088 46.613216,495.656708 
z"/>
<path fill="#000000" opacity="1.000000" stroke="none" 
	d="
M242.000946,562.023804 
	C235.394302,562.025574 229.287506,562.025574 221.710526,562.025574 
	C224.432571,553.788391 226.034241,546.068176 229.455460,539.262695 
	C234.575745,529.077515 244.578918,527.798035 254.554626,529.152039 
	C263.907776,530.421570 268.581329,537.551453 270.883148,545.982178 
	C272.239990,550.951782 272.441711,556.236694 273.252991,562.022034 
	C262.672211,562.022034 252.586502,562.022034 242.000946,562.023804 
z"/>
<path fill="#000000" opacity="1.000000" stroke="none" 
	d="
M334.292847,233.344528 
	C339.413391,228.081345 344.344635,223.119339 349.929504,217.499573 
	C352.582794,220.444016 355.040710,223.345154 357.684326,226.065857 
	C361.917908,230.422882 364.634125,230.910233 369.819519,227.920471 
	C379.219788,222.500488 388.818817,217.700516 399.626587,215.664047 
	C404.128784,214.815704 406.200775,211.737305 406.034912,207.080154 
	C405.899384,203.274475 406.007355,199.460114 406.007355,195.282867 
	C413.691040,195.282867 421.077515,195.282867 429.059265,195.282867 
	C429.059265,198.605652 429.029694,201.885529 429.065369,205.164703 
	C429.141235,212.135162 431.761963,214.142868 438.376526,216.200195 
	C447.087921,218.909683 455.768005,222.239136 463.758698,226.592209 
	C470.963135,230.516937 474.441589,230.860931 479.835968,224.620453 
	C481.577393,222.605896 483.413422,220.673111 484.849518,219.094879 
	C490.399902,224.727097 495.598724,230.002609 501.364288,235.853180 
	C499.517090,237.528229 496.596649,239.966705 493.924561,242.652252 
	C490.536194,246.057770 489.772614,251.144547 492.510529,254.852997 
	C499.062836,263.727936 502.188477,274.009583 504.948303,284.398743 
	C506.139465,288.882874 508.753937,290.730103 512.944702,290.887177 
	C517.078857,291.042053 521.223267,290.920990 525.675354,290.920990 
	C525.675354,298.686371 525.675354,306.075226 525.675354,314.029480 
	C521.946045,314.029480 518.319641,314.188019 514.712402,313.992554 
	C509.220917,313.694885 506.244263,316.031769 504.824890,321.449646 
	C501.996063,332.247498 498.015320,342.576569 491.803345,352.033356 
	C489.719818,355.205200 490.658905,359.093262 493.565277,361.985260 
	C496.279724,364.686310 499.061005,367.320160 501.640106,369.816345 
	C496.265961,375.274689 491.098785,380.522858 485.299194,386.413330 
	C483.170105,384.096344 481.036133,381.574310 478.691467,379.266357 
	C474.527466,375.167480 469.860718,375.241364 464.705994,377.685883 
	C455.892212,381.865631 446.865295,385.690186 437.673096,388.944214 
	C431.612793,391.089569 429.174896,393.232635 429.082977,399.650208 
	C429.031067,403.276489 429.073608,406.904144 429.073608,410.792786 
	C421.341980,410.792786 414.071472,410.792786 406.007874,410.792786 
	C406.007874,406.610535 406.028198,402.359680 406.002716,398.109100 
	C405.970856,392.789886 403.976135,390.042603 398.770386,389.144958 
	C388.257416,387.332184 378.875153,382.890228 369.885712,377.402252 
	C365.818329,374.919128 361.076294,375.397186 357.865387,378.637665 
	C355.169891,381.358002 352.535095,384.138458 349.769653,386.999603 
	C344.537964,381.523254 339.518127,376.268646 334.071106,370.566864 
	C336.403168,368.169128 339.072357,365.294098 341.884613,362.566528 
	C345.354584,359.201050 345.978058,355.303680 343.567322,351.316498 
	C337.585114,341.422363 333.010895,331.045380 330.640167,319.653046 
	C329.889771,316.046875 326.962891,313.926514 322.919159,313.981140 
	C318.791565,314.036865 314.662628,313.993469 310.273193,313.993469 
	C310.273193,306.298370 310.273193,299.030396 310.273193,290.921539 
	C314.276184,290.921539 318.358551,290.844391 322.436798,290.941864 
	C327.114166,291.053680 329.970612,288.857758 330.912964,284.355591 
	C333.117493,273.823151 337.114655,264.068207 342.900665,254.981628 
	C346.098663,249.959366 345.353912,245.979645 341.252380,241.723038 
	C338.759796,239.136246 336.479279,236.345062 334.292847,233.344528 
M474.089752,330.551758 
	C479.318451,319.324066 481.549225,307.756775 480.086578,295.222198 
	C477.935425,276.787079 469.433136,261.905029 454.684357,251.518326 
	C431.838196,235.429199 404.626160,235.274094 382.236603,250.655960 
	C355.241943,269.201569 346.376099,305.108704 363.989166,334.872681 
	C380.843048,363.353607 416.133423,372.834076 445.557190,359.000549 
	C458.168274,353.071503 467.338440,343.459290 474.089752,330.551758 
z"/>
<path fill="#E70965" opacity="1.000000" stroke="none" 
	d="
M168.174271,61.619263 
	C165.543503,55.496891 165.956284,51.086845 169.695267,48.020329 
	C173.165451,45.174282 177.060440,43.868099 181.551895,46.172997 
	C185.565369,48.232597 187.058121,51.329678 187.020309,55.775585 
	C186.984085,60.033329 185.552002,63.198368 181.720276,64.999962 
	C177.878860,66.806122 174.065201,66.611176 170.573273,63.990730 
	C169.782715,63.397469 169.137466,62.610584 168.174271,61.619263 
z"/>
<path fill="#E70963" opacity="1.000000" stroke="none" 
	d="
M129.208313,56.715122 
	C129.018814,51.114010 131.175079,47.700539 136.259216,45.848606 
	C141.555237,43.919498 145.258987,46.094276 148.256271,49.922260 
	C151.281754,53.786240 150.525497,57.965870 147.952560,61.795776 
	C145.353012,65.665314 141.322083,66.376762 137.066498,65.957787 
	C131.828735,65.442116 130.373947,61.363369 129.208313,56.715122 
z"/>
<path fill="#E80963" opacity="1.000000" stroke="none" 
	d="
M93.217606,61.391579 
	C91.321800,56.498768 90.830704,51.929703 94.428703,48.168056 
	C98.014328,44.419331 102.246788,44.454002 107.096924,46.514126 
	C111.698563,48.468700 114.306038,56.254547 111.004326,61.261936 
	C107.560349,66.485085 100.625122,67.760002 95.907471,64.156044 
	C94.990143,63.455273 94.218849,62.563332 93.217606,61.391579 
z"/>
<path fill="#E90965" opacity="1.000000" stroke="none" 
	d="
M474.016632,330.924225 
	C467.338440,343.459290 458.168274,353.071503 445.557190,359.000549 
	C416.133423,372.834076 380.843048,363.353607 363.989166,334.872681 
	C346.376099,305.108704 355.241943,269.201569 382.236603,250.655960 
	C404.626160,235.274094 431.838196,235.429199 454.684357,251.518326 
	C469.433136,261.905029 477.935425,276.787079 480.086578,295.222198 
	C481.549225,307.756775 479.318451,319.324066 474.016632,330.924225 
M425.392395,347.993195 
	C448.241058,344.439423 462.308807,325.662323 463.879822,306.053528 
	C466.160248,277.590271 441.846832,253.350540 412.746582,256.759338 
	C394.765076,258.865723 382.216736,268.865967 375.291870,284.821442 
	C366.189209,305.794800 373.861023,329.178070 393.161499,341.423096 
	C402.544647,347.376068 412.952087,351.132172 425.392395,347.993195 
z"/>
<path fill="#000000" opacity="1.000000" stroke="none" 
	d="
M424.953278,348.003418 
	C412.952087,351.132172 402.544647,347.376068 393.161499,341.423096 
	C373.861023,329.178070 366.189209,305.794800 375.291870,284.821442 
	C382.216736,268.865967 394.765076,258.865723 412.746582,256.759338 
	C441.846832,253.350540 466.160248,277.590271 463.879822,306.053528 
	C462.308807,325.662323 448.241058,344.439423 424.953278,348.003418 
z"/>
</svg>